/* XPM */
static char *_5f98c0a26a14eadf4a860186194f007bPO21stKzD3aDLCl[] = {
/* columns rows colors chars-per-pixel */
"32 32 42 1 ",
"  c black",
". c gray5",
"X c #161616",
"o c gray11",
"O c #222222",
"+ c gray18",
"@ c #353535",
"# c gray22",
"$ c gray24",
"% c gray25",
"& c gray28",
"* c #4B4B4B",
"= c gray31",
"- c #515151",
"; c #555555",
": c #585858",
"> c gray36",
", c gray43",
"< c gray44",
"1 c gray48",
"2 c gray49",
"3 c #909090",
"4 c gray58",
"5 c #9B9B9B",
"6 c gray61",
"7 c gray63",
"8 c #ACACAC",
"9 c gray70",
"0 c gray71",
"q c #BBBBBB",
"w c #C1C1C1",
"e c #CBCBCB",
"r c #CECECE",
"t c #D0D0D0",
"y c #D7D7D7",
"u c #E7E7E7",
"i c gray91",
"p c #ECECEC",
"a c gray94",
"s c gray96",
"d c gray98",
"f c white",
/* pixels */
"                                ",
"                                ",
"                                ",
"                                ",
"                                ",
"                                ",
"                                ",
"              -8ypsfsir6+       ",
"            @wdfffffffffs0+     ",
"           >ufffffffffffff5     ",
"          $pfffp02=O*<7tdf5     ",
"          tfffqo        &w4     ",
"         <fff0                  ",
"         effu.                  ",
"         aff7                   ",
"        :fff;                   ",
"        2ffs                    ",
"        3ffp                    ",
"        3ffp                    ",
"        2ffs                    ",
"        :fff;                   ",
"         aff7                   ",
"         effu                   ",
"         <fff9                  ",
"          tfffqX        &w4     ",
"          %pfffp91*O&,7tdf5     ",
"           >ifffffffffffff5     ",
"            #wdfffffffffs0+     ",
"              -8ypdfsir5+       ",
"                                ",
"                                ",
"                                "
};
