/* XPM */
static char *_018aa69121f48febdc7dfd63ee19e65RxrVVhmi9MJKbAmw[] = {
/* columns rows colors chars-per-pixel */
"32 32 7 1 ",
"  c black",
". c #323232",
"X c gray28",
"o c #989898",
"O c gray89",
"+ c gray96",
"@ c white",
/* pixels */
"                                ",
"                                ",
"                                ",
"                                ",
"                                ",
"                                ",
"                                ",
"         X@@@@@@@@@@@@@O        ",
"         X@@@@@@@@@@@@@O        ",
"         X@@@@@@@@@@@@@O        ",
"         X@@+                   ",
"         X@@+                   ",
"         X@@+                   ",
"         X@@+                   ",
"         X@@+                   ",
"         X@@+                   ",
"         X@@@@@@@@@@@@@o        ",
"         X@@@@@@@@@@@@@o        ",
"         X@@@@@@@@@@@@@o        ",
"         X@@+                   ",
"         X@@+                   ",
"         X@@+                   ",
"         X@@+                   ",
"         X@@+                   ",
"         X@@+                   ",
"         X@@+                   ",
"         X@@@@@@@@@@@@@@.       ",
"         X@@@@@@@@@@@@@@.       ",
"         X@@@@@@@@@@@@@@.       ",
"                                ",
"                                ",
"                                "
};
