/* XPM */
static char *_40d0ac1f4c84d5ae65924fecba2dcefElacZ9BGnVrebUBq[] = {
/* columns rows colors chars-per-pixel */
"32 32 26 1 ",
"  c black",
". c gray5",
"X c #161616",
"o c gray11",
"O c #222222",
"+ c gray22",
"@ c gray24",
"# c gray28",
"$ c #4B4B4B",
"% c gray36",
"& c #626262",
"* c #656565",
"= c gray48",
"- c #929292",
"; c gray58",
": c #9B9B9B",
"> c #B7B7B7",
", c gray72",
"< c gray83",
"1 c #E1E1E1",
"2 c #E6E6E6",
"3 c gray91",
"4 c #EEEEEE",
"5 c gray96",
"6 c gray98",
"7 c white",
/* pixels */
"                                ",
"                                ",
"                                ",
"                                ",
"                                ",
"                                ",
"                                ",
"         #777777764<:o          ",
"         #777777777772&         ",
"         #7777777777774+        ",
"         #775   X%;1777>        ",
"         #775      .<773        ",
"         #775       =777        ",
"         #775       $777+       ",
"         #775       =777        ",
"         #775      .<773        ",
"         #775   X%-1777,        ",
"         #7777777777774@        ",
"         #777777777773*         ",
"         #777777764<:O          ",
"         #775                   ",
"         #775                   ",
"         #775                   ",
"         #775                   ",
"         #775                   ",
"         #775                   ",
"         #775                   ",
"         #775                   ",
"         #775                   ",
"                                ",
"                                ",
"                                "
};
