/* XPM */
static char *_27715db21d14798e9f40ef4fd97b46d4h2lMoQSgPDf6EM9[] = {
/* columns rows colors chars-per-pixel */
"32 32 51 1 ",
"  c black",
". c gray5",
"X c #161616",
"o c gray11",
"O c gray15",
"+ c #323232",
"@ c gray24",
"# c gray28",
"$ c #494949",
"% c gray30",
"& c #535353",
"* c #565656",
"= c #5A5A5A",
"- c gray36",
"; c gray40",
": c #686868",
"> c #6C6C6C",
", c #717171",
"< c gray46",
"1 c gray47",
"2 c #7C7C7C",
"3 c gray51",
"4 c #898989",
"5 c gray56",
"6 c gray58",
"7 c #9B9B9B",
"8 c gray62",
"9 c #A0A0A0",
"0 c gray65",
"q c gray66",
"w c #ACACAC",
"e c #B2B2B2",
"r c #B6B6B6",
"t c #BBBBBB",
"y c gray",
"u c #C3C3C3",
"i c gray78",
"p c #CACACA",
"a c gray81",
"s c #D0D0D0",
"d c #D7D7D7",
"f c gray85",
"g c #DFDFDF",
"h c gray88",
"j c #E6E6E6",
"k c #EAEAEA",
"l c #ECECEC",
"z c #F1F1F1",
"x c gray97",
"c c #F8F8F8",
"v c white",
/* pixels */
"                                ",
"                                ",
"                                ",
"                                ",
"                                ",
"                                ",
"                                ",
"  zvv-       ocvva        rvvi  ",
"  svv9       2vvvz        fvv6  ",
"  0vvp       evvvv-      Xcvv$  ",
"  ;vvl       fvhvv9      1vvk   ",
"   zvv*     Xxvrhva      evvi   ",
"   svv8     1vv3yvl      fvv6   ",
"   0vvp     evcO5vv=    .xvv$   ",
"   :vvl     dvg @vv8    <vvk    ",
"    zvv&   .xvt  jvp    wvvi    ",
"    svv7   <vv4  ivl    dvv6    ",
"    qvvp   wvv+  6vv*   xvv$    ",
"    :vvk   dvh   $vv8  ,vvk     ",
"     zvv%  xvy    kvp  qvvi     ",
"     svv7 ,vv5    pvl  dvv6     ",
"     qvvi wvv@    8vv& zvv$     ",
"     >vvk dvj     =vv7:vvk      ",
"      xvv$xvu      lvpqvvi      ",
"      dvvrvv6      avksvv6      ",
"      qvvxvv#      0vvxvv$      ",
"      >vvvvk       :vvvvk       ",
"       xvvvi        zvvvi       ",
"       dvvv7        dvvv6       ",
"                                ",
"                                ",
"                                "
};
